<?xml version="1.0" encoding="UTF-8"?>
<svg width="793.7" height="793.7" version="1.1" viewBox="0 0 210 210" xmlns="http://www.w3.org/2000/svg">
 <g transform="translate(0,-87)" fill="#ff7f2a">
  <path transform="matrix(.26458 0 0 .26458 0 87)" d="m25 18.701v223.95l223.95-223.95h-223.95zm750 526.05l-223.95 223.95h223.95v-223.95z" style="paint-order:fill markers stroke"/>
  <path d="m84.956 124.99c-10.971-3e-3 -18.037 0.14146-20.169 0.42359-11.356 1.5023-20.395 9.7687-23.42 21.415-0.99691 3.8379-1.0581 6.3717-1.0581 44.508 0 44.539-0.06913 43.507 3.4494 50.504 3.6401 7.239 12.321 13.791 19.692 14.863v2e-3c4.4856 0.65188 80.299 0.65536 84.505 3e-3 9.1753-1.422 18.005-8.8379 21.433-17.999 1.8763-5.015 2.234-10.399 2.0678-31.143l-0.15905-19.772-10.16-0.27533-10.16-0.27374-0.32169-19.224c-0.33727-20.098-0.45008-21.454-2.2484-27.075-2.2056-6.8942-8.3138-11.637-18.575-14.423-4.5322-1.2308-5.4842-1.2741-32.64-1.4816-4.4862-0.036-8.5768-0.0508-12.234-0.052zm11.898 34.519c25.801 0 25.691-0.012 27.81 3.1294 1.4342 2.127 1.4618 8.6014 0.0448 10.7-2.4058 3.5632-1.6522 3.4638-26.732 3.5477-12.536 0.042-23.391-0.0439-24.124-0.18941-1.9736-0.39162-3.8373-1.7737-4.7362-3.5119-1.1084-2.1435-1.047-8.414 0.1019-10.359 1.9833-3.3574 1.6482-3.3171 27.636-3.3171zm10.734 49.703c32.551 0 34.687 0.0607 36.072 1.0008 2.5512 1.7317 3.4074 3.6069 3.4244 7.5118 0.012 2.3685-0.3069 4.1676-0.94008 5.3457-1.9138 3.5601-0.56789 3.4422-39.142 3.4422h-34.967l-2.1322-2.1322c-2.0827-2.0827-2.1322-2.2248-2.1322-6.0945 0-4.5084 0.83363-6.419 3.5066-8.0372 1.6279-0.98552 3.3822-1.0366 36.311-1.0366z"/>
 </g>
</svg>
