<?xml version="1.0" encoding="UTF-8"?>
<svg width="793.7" height="793.7" version="1.1" viewBox="0 0 210 210" xmlns="http://www.w3.org/2000/svg">
 <g transform="translate(0,-87)" fill="#3c5b9b">
  <path transform="matrix(.26458 0 0 .26458 0 87)" d="m25 18.701v223.95l223.95-223.95h-223.95zm750 526.05l-223.95 223.95h223.95v-223.95z" style="paint-order:fill markers stroke"/>
  <path d="m128.17 124.31c-8.3176 0.0887-18.43 0.61547-24.797 4.767-4.1637 2.812-7.4419 7.1138-9.5153 11.69-2.0309 4.4827-2.0513 9.6541-2.4634 14.558v17.652h-20.861v24.07h20.861v60.978h25.675v-60.978h19.256l3.2094-24.07h-22.465c-0.0418-3.7572 0.29282-6.4397 0-9.7879v-8.0234c0-4.445 3.5784-8.0234 8.0234-8.0234h9.6281c0.55016 0 1.0862 0.0547 1.6047 0.16024 0.51842-0.10559 1.0545-0.16024 1.6047-0.16024h3.2094v-22.306s-6.3046-0.46758-12.969-0.52642z" fill-rule="evenodd"/>
 </g>
</svg>
