<?xml version="1.0" encoding="UTF-8"?>
<svg width="793.7" height="793.7" version="1.1" viewBox="0 0 210 210" xmlns="http://www.w3.org/2000/svg">
 <g transform="translate(0,-87)" fill="#d13f2d">
  <path transform="matrix(.26458 0 0 .26458 0 87)" d="m25 18.701v223.95l223.95-223.95h-223.95zm750 526.05l-223.95 223.95h223.95v-223.95z" style="paint-order:fill markers stroke"/>
  <path d="m95.596 123.67c-37.276 8e-5 -67.494 30.218-67.494 67.494 3.2e-5 37.276 30.218 67.494 67.494 67.494 35.093 0 60.808-21.111 63.7-54.156 0.45303-6.3306 0.73592-9.3162 0.6544-13.338-0.0113-1.9212-0.10938-3.8409-0.28692-5.754h-63.195v19.092h45.26c-4.8608 27.226-27.381 35.904-46.13 36.394-27.466-8e-5 -49.732-22.266-49.732-49.732 1.13e-4 -27.466 22.266-49.732 49.732-49.732 12.702 0.0242 24.915 4.9039 34.133 13.644l12.592-12.591c-12.563-12.066-29.305-18.807-46.724-18.814z"/>
  <path d="m165.82 153.94v11.771h-11.771v5.973h11.771v11.77h5.9731v-11.77h11.77v-5.973h-11.77v-11.771z"/>
 </g>
</svg>
