<?xml version="1.0" encoding="UTF-8"?>
<svg width="793.7" height="793.7" version="1.1" viewBox="0 0 210 210" xmlns="http://www.w3.org/2000/svg">
 <g transform="translate(0,-87)" fill="#a47f62">
  <path transform="matrix(.26458 0 0 .26458 0 87)" d="m25 18.701v223.95l223.95-223.95h-223.95zm750 526.05l-223.95 223.95h223.95v-223.95z" style="paint-order:fill markers stroke"/>
  <path d="m74.298 125.3c-18.917 0-34.336 15.415-34.336 34.332v63.075c0 18.917 15.419 34.334 34.336 34.334h63.073c18.917 0 34.334-15.417 34.334-34.334v-63.075c0-18.917-15.417-34.332-34.334-34.332zm64.982 21.158a11.364 11.364 0 0 1 11.365 11.365 11.364 11.364 0 0 1 -11.365 11.365 11.364 11.364 0 0 1 -11.365 -11.365 11.364 11.364 0 0 1 11.365 -11.365zm-35.246 14.623c-0.17447 9e-3 -0.3469 0.0245-0.52031 0.0408 0.17365-0.0122 0.34608-0.0285 0.52031-0.0408zm3.6105 0c0.17446 9e-3 0.34689 0.0245 0.52029 0.0408-0.17364-0.0122-0.34607-0.0285-0.52029-0.0408zm-5.4285 0.16631c-0.18018 0.0204-0.36035 0.0444-0.53926 0.0693 0.17936-0.0245 0.35912-0.0477 0.53926-0.0693zm7.2443 0c0.18221 0.0204 0.36442 0.0444 0.54558 0.0693-0.1814-0.0245-0.3632-0.0477-0.54558-0.0693zm-9.178 0.29717c-0.12189 0.0244-0.245 0.0432-0.36647 0.0672 0.12147-0.0244 0.24458-0.0444 0.36647-0.0672zm11.106 0c0.12474 0.0244 0.25069 0.0423 0.37502 0.0672-0.12392-0.0244-0.25028-0.0441-0.37502-0.0672zm-13.174 0.45928c-0.11047 0.0285-0.2189 0.0624-0.32855 0.0925 0.11006-0.0285 0.21808-0.0636 0.32855-0.0925zm15.251 0c0.11454 0.0285 0.22705 0.0656 0.34119 0.097-0.11414-0.0326-0.22665-0.0668-0.34119-0.097zm1.6916 0.50135c0.15979 0.0522 0.31755 0.10762 0.47607 0.16224-0.15857-0.0546-0.31632-0.11006-0.47607-0.16224zm-18.651 9e-3c-0.14594 0.0477-0.29105 0.0974-0.43605 0.14756 0.14512-0.0502 0.28983-0.0995 0.43605-0.14756zm20.343 0.60676c0.14104 0.0559 0.2833 0.10884 0.42341 0.16632-0.13982-0.0575-0.28249-0.11088-0.42341-0.16632zm-22.051 0.0122c-0.12474 0.0493-0.2511 0.0966-0.37503 0.14757 0.12393-0.0509 0.24988-0.0978 0.37503-0.14757zm25.655 1.6895c0.053 0.0285 0.10517 0.0607 0.15816 0.0905-0.0525-0.0285-0.10517-0.0611-0.15816-0.0905zm-29.245 9e-3c-0.03671 0.0204-0.07295 0.0423-0.10965 0.0631 0.03671-0.0204 0.07257-0.0423 0.10965-0.0631zm30.797 0.92264c0.0599 0.0367 0.11943 0.077 0.17894 0.11576-0.0595-0.0408-0.11902-0.0774-0.17894-0.11576zm-32.35 0.0122c-0.04854 0.0326-0.09702 0.0615-0.14552 0.0925 0.04806-0.0326 0.09702-0.0615 0.14552-0.0925zm16.184 1.7505c13.103 0 23.652 10.559 23.652 23.662 0 13.104-10.548 23.652-23.652 23.652s-23.662-10.548-23.662-23.652c0-13.103 10.559-23.662 23.662-23.662zm-59.376 7.4255h33.997c-3.0145 4.6922-4.7733 10.263-4.7733 16.237 0 16.613 13.539 30.142 30.153 30.142 16.613 0 30.142-13.529 30.142-30.142 0-5.9735-1.7562-11.545-4.7692-16.237h33.997v47.775c0 15.418-12.413 27.831-27.831 27.831h-63.084c-15.418 0-27.831-12.413-27.831-27.831z" color="#000000" color-rendering="auto" dominant-baseline="auto" image-rendering="auto" shape-rendering="auto" solid-color="#000000" style="font-feature-settings:normal;font-variant-alternates:normal;font-variant-caps:normal;font-variant-ligatures:normal;font-variant-numeric:normal;font-variant-position:normal;isolation:auto;mix-blend-mode:normal;shape-padding:0;text-decoration-color:#000000;text-decoration-line:none;text-decoration-style:solid;text-indent:0;text-orientation:mixed;text-transform:none;white-space:normal"/>
 </g>
</svg>
