<?xml version="1.0" encoding="UTF-8"?>
<svg width="793.7" height="793.7" version="1.1" viewBox="0 0 210 210" xmlns="http://www.w3.org/2000/svg">
 <path d="m6.6146 4.948v59.253l59.253-59.253zm198.44 139.18-59.253 59.253h59.253z" fill="#f00" style="paint-order:fill markers stroke"/>
 <path d="m106.81 39.379c-3.3103 0.031-6.6825 0.21721-8.7368 0.54555-7.0032 1.1188-12.414 2.8477-17.829 5.6975-14.672 7.7218-23.852 23.176-23.861 40.173-7e-3 12.394 6.4761 25.482 14.745 29.769 1.5357 0.7961 2.1135 0.96528 2.3812 0.69764 0.34913-0.34916 2.7248-9.5001 2.7248-10.496 0-0.28296-0.42466-1.0492-0.94459-1.7023-1.5082-1.8944-3.5787-6.4732-4.414-9.7612-0.95436-3.757-1.2598-8.5209-0.77743-12.128 2.0425-15.274 13.08-26.766 28.275-29.44 3.6167-0.6365 10.454-0.63422 14.083 4e-3 10.256 1.804 18.413 7.7383 22.748 16.548 2.1192 4.3068 3.0351 8.0987 3.2507 13.45 0.75964 18.862-7.7506 34.479-20.312 37.273-3.3363 0.74228-7.6159 0.50117-9.9153-0.55962-3.8982-1.7983-6.5857-5.5867-6.8731-9.688-0.17006-2.4251 0.32772-4.6258 3.1427-13.91 3.6483-12.033 4.1932-15.872 2.8646-20.173-0.86781-2.8099-3.0453-5.0529-5.6374-5.8064-2.5798-0.74992-5.4049-0.48386-7.8983 0.74366-2.2301 1.0979-5.041 3.8956-6.3482 6.3182-2.9751 5.5132-3.3689 13.911-0.96809 20.639l0.723 2.0263-4.7097 19.965c-2.5904 10.981-4.8781 21.12-5.0834 22.533-0.3683 2.5326-0.22203 15.127 0.20653 17.819 7e-3 0.0475 7e-3 8.9986 0.01401 9.0425l6.1726-8.928c0.06305-0.10841 0.11804-0.20792 0.18314-0.31841 2.7104-4.6053 6.2056-12.001 7.3012-15.449 0.56046-1.7639 2.0342-7.1071 3.275-11.874 1.4695-5.645 2.4101-8.7252 2.6976-8.8355 0.24268-0.0933 0.50051 0.0275 0.57277 0.26645 0.07233 0.24028 1.1111 1.4042 2.3088 2.5858 6.12 6.0379 16.4 7.4728 27.001 3.7699 5.3852-1.881 9.6734-4.6489 14.119-9.1134 9.3768-9.417 14.526-23.68 13.953-38.65-0.44998-11.748-4.4453-20.922-12.711-29.188-7.3548-7.3548-16.063-11.639-27.356-13.462-1.8082-0.29191-5.0566-0.41525-8.367-0.38403z" fill="#f00"/>
</svg>
